<svg width="283" height="46" viewBox="0 0 283 46" fill="none" xmlns="http://www.w3.org/2000/svg">
<path d="M157.036 14.6604C155.974 15.1262 154.842 15.4349 153.663 15.5848C154.876 14.8603 155.802 13.7218 156.238 12.3495C155.107 13.024 153.857 13.5005 152.526 13.7664C151.452 12.6225 149.921 11.9141 148.25 11.9141C145.01 11.9141 142.401 14.5444 142.401 17.769C142.401 18.233 142.44 18.6791 142.537 19.1038C137.67 18.8665 133.364 16.5341 130.472 12.9812C129.967 13.8574 129.67 14.8603 129.67 15.9399C129.67 17.9671 130.714 19.7641 132.27 20.8044C131.33 20.7866 130.407 20.5135 129.626 20.0835C129.626 20.1013 129.626 20.1245 129.626 20.1477C129.626 22.9922 131.655 25.3549 134.315 25.8992C133.839 26.0294 133.32 26.0919 132.781 26.0919C132.406 26.0919 132.028 26.0705 131.673 25.9919C132.431 28.31 134.583 30.0142 137.142 30.0695C135.151 31.6274 132.622 32.566 129.884 32.566C129.404 32.566 128.944 32.5446 128.484 32.4857C131.077 34.1578 134.149 35.1125 137.463 35.1125C148.234 35.1125 154.123 26.19 154.123 18.456C154.123 18.1973 154.114 17.9474 154.102 17.6994C155.264 16.875 156.24 15.8453 157.036 14.6604Z" fill="white"/>
<circle cx="22.6736" cy="22.6736" r="22.1736" stroke="white"/>
<circle cx="82.2968" cy="22.6736" r="22.1736" stroke="white"/>
<path d="M163.254 22.6736C163.254 34.9286 153.505 44.8472 141.5 44.8472C129.495 44.8472 119.746 34.9286 119.746 22.6736C119.746 10.4186 129.495 0.5 141.5 0.5C153.505 0.5 163.254 10.4186 163.254 22.6736Z" stroke="white"/>
<circle cx="200.703" cy="22.6736" r="22.1736" stroke="white"/>
<circle cx="260.326" cy="22.6736" r="22.1736" stroke="white"/>
<path d="M16.7428 29.4043V34.2728C16.7428 34.6129 16.9611 34.9142 17.2844 35.0213C17.3653 35.0475 17.4482 35.0601 17.5301 35.0601C17.7757 35.0601 18.0129 34.9446 18.1641 34.7389L21.0119 30.8634L16.7428 29.4043Z" fill="white"/>
<path d="M32.4197 11.062C32.1783 10.8909 31.8613 10.8678 31.5988 11.0053L7.98051 23.3393C7.70129 23.4853 7.53649 23.7834 7.55958 24.0972C7.58372 24.4121 7.79261 24.6809 8.08968 24.7827L14.6556 27.027L28.6387 15.0708L17.8183 28.1071L28.8224 31.8682C28.9042 31.8955 28.9903 31.9102 29.0764 31.9102C29.2192 31.9102 29.3609 31.8713 29.4858 31.7958C29.6852 31.674 29.8206 31.4693 29.8553 31.2394L32.742 11.8199C32.785 11.526 32.6611 11.2342 32.4197 11.062Z" fill="white"/>
<path d="M88.1723 10.917H77.2604C73.5548 10.917 70.54 13.9319 70.54 17.6375V28.5494C70.54 32.2552 73.5548 35.27 77.2604 35.27H88.1723C91.8782 35.27 94.893 32.255 94.893 28.5494V17.6375C94.8932 13.9319 91.8782 10.917 88.1723 10.917ZM92.7324 28.5494C92.7324 31.0638 90.6868 33.1092 88.1725 33.1092H77.2604C74.7462 33.1094 72.7008 31.0638 72.7008 28.5494V17.6375C72.7008 15.1233 74.7462 13.0777 77.2604 13.0777H88.1723C90.6867 13.0777 92.7323 15.1233 92.7323 17.6375V28.5494H92.7324Z" fill="white"/>
<path d="M82.7166 16.8186C79.2564 16.8186 76.4414 19.6336 76.4414 23.0937C76.4414 26.5538 79.2564 29.3686 82.7166 29.3686C86.1767 29.3686 88.9917 26.5538 88.9917 23.0937C88.9917 19.6336 86.1767 16.8186 82.7166 16.8186ZM82.7166 27.2077C80.4479 27.2077 78.6021 25.3622 78.6021 23.0936C78.6021 20.8249 80.4478 18.9792 82.7166 18.9792C84.9853 18.9792 86.831 20.8249 86.831 23.0936C86.831 25.3622 84.9852 27.2077 82.7166 27.2077Z" fill="white"/>
<path d="M89.2549 14.9861C88.8386 14.9861 88.4296 15.1546 88.1356 15.4499C87.8402 15.7438 87.6703 16.1529 87.6703 16.5706C87.6703 16.987 87.8403 17.396 88.1356 17.6913C88.4295 17.9852 88.8386 18.1551 89.2549 18.1551C89.6726 18.1551 90.0803 17.9852 90.3756 17.6913C90.6709 17.396 90.8394 16.9869 90.8394 16.5706C90.8394 16.1529 90.6709 15.7438 90.3756 15.4499C90.0817 15.1546 89.6726 14.9861 89.2549 14.9861Z" fill="white"/>
<path d="M205.458 13.9781H208.065V9.43836C207.615 9.3765 206.069 9.2373 204.267 9.2373C200.509 9.2373 197.935 11.6012 197.935 15.9458V19.9443H193.788V25.0194H197.935V37.7892H203.02V25.0206H206.999L207.631 19.9455H203.018V16.449C203.02 14.9822 203.414 13.9781 205.458 13.9781Z" fill="white"/>
<g clip-path="url(#clip0)">
<path d="M272.194 22.4168C271.925 21.2481 270.969 20.3859 269.818 20.2576C267.094 19.9533 264.335 19.9519 261.59 19.9533C258.844 19.9519 256.085 19.9533 253.36 20.2576C252.21 20.3862 251.255 21.2484 250.986 22.4168C250.603 24.0811 250.599 25.8978 250.599 27.6115C250.599 29.3251 250.599 31.1415 250.982 32.8058C251.25 33.9743 252.206 34.8364 253.356 34.965C256.081 35.2696 258.839 35.2708 261.585 35.2696C264.331 35.2711 267.089 35.2696 269.814 34.965C270.964 34.8364 271.92 33.9743 272.189 32.8058C272.572 31.1415 272.574 29.3251 272.574 27.6115C272.573 25.8975 272.576 24.0811 272.194 22.4168ZM256.867 23.7067H255.276V32.1581H253.799V23.7067H252.237V22.3224H256.867V23.7067ZM260.879 32.1584H259.55V31.3589C259.022 31.9641 258.521 32.2592 258.033 32.2592C257.605 32.2592 257.31 32.0858 257.177 31.7146C257.105 31.4929 257.06 31.1421 257.06 30.6248V24.8295H258.388V30.2254C258.388 30.5366 258.388 30.6983 258.4 30.7419C258.432 30.948 258.533 31.0525 258.711 31.0525C258.977 31.0525 259.256 30.8473 259.55 30.4307V24.8295H260.879L260.879 32.1584ZM265.924 29.9587C265.924 30.6366 265.879 31.1249 265.79 31.4355C265.613 31.9807 265.257 32.2592 264.729 32.2592C264.257 32.2592 263.801 31.9968 263.357 31.4484V32.1587H262.029V22.3224H263.357V25.5346C263.786 25.0067 264.241 24.7397 264.729 24.7397C265.257 24.7397 265.613 25.0179 265.79 25.5665C265.879 25.8614 265.924 26.346 265.924 27.0399V29.9587ZM270.936 28.736H268.28V30.0351C268.28 30.7135 268.502 31.0523 268.959 31.0523C269.286 31.0523 269.476 30.8746 269.552 30.5197C269.564 30.4476 269.582 30.1525 269.582 29.62H270.936V29.8137C270.936 30.2418 270.92 30.5366 270.908 30.6693C270.864 30.9633 270.759 31.23 270.598 31.4648C270.23 31.9971 269.685 32.2595 268.992 32.2595C268.297 32.2595 267.768 32.0094 267.384 31.509C267.103 31.1421 266.958 30.5645 266.958 29.7856V27.2187C266.958 26.4352 267.086 25.8622 267.368 25.4919C267.752 24.9903 268.281 24.7405 268.959 24.7405C269.625 24.7405 270.154 24.9903 270.526 25.4919C270.804 25.8622 270.937 26.4352 270.937 27.2187V28.736H270.936Z" fill="white"/>
<path d="M268.947 25.9353C268.503 25.9353 268.281 26.2744 268.281 26.9519V27.63H269.608V26.9519C269.608 26.2744 269.386 25.9353 268.947 25.9353Z" fill="white"/>
<path d="M264.019 25.9353C263.8 25.9353 263.578 26.0387 263.356 26.2583V30.7251C263.578 30.9474 263.8 31.0524 264.019 31.0524C264.402 31.0524 264.596 30.7251 264.596 30.0634V26.9352C264.596 26.2744 264.402 25.9353 264.019 25.9353Z" fill="white"/>
<path d="M264.761 19.2778C265.25 19.2778 265.759 18.9804 266.294 18.3683V19.1762H267.636V11.7695H266.294V17.4304C265.996 17.8507 265.714 18.0586 265.446 18.0586C265.266 18.0586 265.16 17.9523 265.131 17.7442C265.115 17.7003 265.115 17.5369 265.115 17.2226V11.7695H263.777V17.6262C263.777 18.1493 263.822 18.5033 263.896 18.7275C264.031 19.1027 264.328 19.2778 264.761 19.2778Z" fill="white"/>
<path d="M255.417 15.1508V19.1761H256.905V15.1508L258.696 9.2373H257.191L256.175 13.1403L255.119 9.2373H253.553C253.867 10.1586 254.193 11.0845 254.507 12.0066C254.984 13.3927 255.282 14.4377 255.417 15.1508Z" fill="white"/>
<path d="M260.69 19.2778C261.363 19.2778 261.885 19.0249 262.256 18.5196C262.538 18.149 262.673 17.565 262.673 16.7778V14.1842C262.673 13.3924 262.538 12.8137 262.256 12.4396C261.885 11.9329 261.363 11.6799 260.69 11.6799C260.021 11.6799 259.499 11.9329 259.128 12.4396C258.843 12.8137 258.708 13.3924 258.708 14.1842V16.7778C258.708 17.565 258.843 18.149 259.128 18.5196C259.499 19.0249 260.021 19.2778 260.69 19.2778ZM260.05 13.9152C260.05 13.2299 260.258 12.8883 260.69 12.8883C261.123 12.8883 261.33 13.2297 261.33 13.9152V17.0308C261.33 17.716 261.123 18.0588 260.69 18.0588C260.258 18.0588 260.05 17.716 260.05 17.0308V13.9152Z" fill="white"/>
</g>
<defs>
<clipPath id="clip0">
<rect width="26.0326" height="26.0326" fill="white" transform="translate(248.57 9.2373)"/>
</clipPath>
</defs>
</svg>
